<?xml version="1.0" standalone="no"?>
<!DOCTYPE svg PUBLIC "-//W3C//DTD SVG 20010904//EN"
 "http://www.w3.org/TR/2001/REC-SVG-20010904/DTD/svg10.dtd">
<svg version="1.0" xmlns="http://www.w3.org/2000/svg"
 width="1604.000000pt" height="1604.000000pt" viewBox="0 0 1604.000000 1604.000000"
 preserveAspectRatio="xMidYMid meet">
<metadata>
Created by potrace 1.14, written by Peter Selinger 2001-2017
</metadata>
<g transform="translate(0.000000,1604.000000) scale(0.100000,-0.100000)"
fill="#000000" stroke="none">
<path d="M8839 12010 c-6 -19 -15 -40 -20 -46 -5 -6 -6 -14 -2 -17 3 -4 1 -7
-5 -7 -7 0 -11 -3 -10 -7 0 -5 -2 -17 -7 -28 -11 -27 -55 -134 -68 -165 -6
-14 -11 -27 -12 -30 -3 -9 -26 -64 -40 -95 -11 -26 -25 -60 -30 -75 -1 -3 -6
-16 -12 -30 -6 -14 -34 -81 -62 -150 -29 -69 -56 -134 -61 -145 -5 -11 -54
-130 -110 -265 -55 -135 -107 -259 -115 -277 -8 -17 -15 -38 -15 -47 0 -9 -3
-16 -8 -16 -4 0 -16 -24 -26 -52 -10 -29 -27 -72 -37 -95 -10 -23 -19 -44 -19
-47 0 -3 -13 -35 -30 -71 -16 -36 -30 -68 -30 -71 0 -3 -9 -24 -19 -48 -11
-23 -21 -48 -23 -56 -2 -8 -5 -17 -9 -20 -3 -3 -13 -27 -24 -55 -10 -27 -27
-70 -38 -95 -11 -25 -21 -49 -23 -55 -2 -11 -76 -190 -99 -240 -38 -84 -53
-124 -47 -129 3 -3 0 -6 -6 -6 -7 0 -12 -5 -12 -11 0 -6 -30 -81 -66 -167 -36
-87 -67 -161 -68 -167 -4 -13 -19 -49 -44 -105 -18 -41 -30 -73 -32 -85 -1 -2
-16 -38 -35 -79 -18 -41 -32 -76 -29 -79 2 -2 -2 -10 -11 -17 -8 -7 -15 -18
-15 -25 0 -11 -81 -210 -150 -370 -52 -120 -120 -291 -120 -301 0 -8 -4 -14
-10 -14 -5 0 -9 -3 -8 -7 1 -9 1 -8 -50 -133 -19 -47 -41 -101 -49 -120 -8
-19 -18 -43 -23 -52 -6 -10 -10 -25 -10 -33 0 -8 -5 -15 -12 -15 -6 0 -9 -3
-6 -6 5 -4 -31 -99 -72 -189 -5 -11 -11 -27 -12 -35 -2 -8 -6 -17 -9 -20 -4
-4 -52 -116 -55 -130 0 -3 -8 -23 -18 -45 -9 -22 -21 -49 -25 -60 -5 -11 -13
-31 -19 -45 -6 -14 -39 -92 -73 -175 -33 -82 -67 -163 -74 -180 -7 -16 -25
-59 -40 -95 -15 -36 -32 -76 -38 -90 -6 -14 -11 -27 -12 -30 -1 -3 -6 -16 -12
-30 -6 -14 -21 -50 -33 -80 -12 -30 -27 -68 -35 -85 -7 -16 -30 -70 -50 -120
-21 -49 -40 -94 -44 -100 -3 -5 -6 -14 -7 -20 -1 -8 -135 -335 -164 -400 -41
-93 -50 -116 -50 -127 0 -8 -6 -20 -12 -27 -7 -6 -14 -16 -14 -22 -1 -5 -3
-11 -4 -14 -1 -3 -3 -8 -5 -12 -1 -5 -7 -21 -13 -36 -7 -16 -12 -33 -12 -38 0
-5 -4 -9 -8 -9 -5 0 -9 -6 -9 -12 0 -7 -10 -34 -21 -60 -12 -26 -22 -49 -22
-52 0 -2 -9 -25 -20 -50 -11 -26 -20 -50 -21 -54 -1 -4 -9 -23 -19 -42 -10
-19 -19 -39 -20 -45 -1 -5 -9 -26 -17 -45 -8 -19 -31 -73 -50 -120 -19 -47
-41 -101 -50 -120 -8 -19 -22 -51 -31 -70 -8 -19 -15 -41 -15 -47 0 -7 -4 -13
-9 -13 -4 0 -8 -6 -8 -13 0 -6 -22 -64 -48 -127 -56 -132 -65 -153 -67 -160
-1 -3 -7 -16 -12 -30 -6 -14 -28 -65 -48 -115 -20 -49 -42 -101 -48 -115 -6
-14 -11 -27 -12 -30 -1 -3 -11 -27 -23 -53 -12 -27 -22 -54 -22 -60 0 -7 -7
-21 -15 -31 -8 -10 -12 -23 -9 -27 3 -5 0 -9 -5 -9 -6 0 -10 -3 -9 -7 1 -5 -4
-21 -10 -36 -7 -16 -12 -33 -12 -38 0 -5 321 -9 828 -9 l828 0 13 37 c7 21 19
52 26 68 8 17 32 75 55 130 23 55 51 125 64 155 13 30 38 91 55 135 18 44 39
94 46 110 8 17 48 113 90 215 89 216 93 226 112 262 8 16 11 28 7 28 -3 0 -2
6 4 13 6 6 11 15 11 20 0 4 8 21 16 37 9 17 12 30 9 30 -4 0 1 9 11 20 10 11
15 20 12 20 -4 0 3 21 14 48 17 39 180 432 346 832 19 47 39 94 43 105 5 11
23 54 40 95 41 99 48 116 60 143 5 12 44 105 86 207 42 102 81 196 87 210 6
14 11 27 12 30 1 3 9 22 18 44 9 21 17 41 17 43 0 3 7 19 14 36 8 18 31 73 52
122 20 50 39 95 42 100 4 6 7 15 9 20 1 6 27 71 58 145 31 74 59 144 64 155 5
11 18 41 30 66 11 25 21 49 21 52 0 3 10 27 22 54 11 26 22 53 24 58 1 6 21
55 44 110 45 107 57 136 59 147 1 4 17 41 36 82 18 41 32 76 29 79 -2 2 2 10
11 17 8 7 15 19 15 27 0 8 9 33 19 56 10 23 35 83 55 132 20 50 41 99 46 110
8 17 30 70 35 85 8 23 33 82 74 172 11 26 21 50 21 53 0 6 109 270 141 342 11
24 19 45 19 47 0 2 10 26 22 53 11 26 22 53 24 58 2 10 76 188 99 240 7 17 25
59 39 95 15 36 31 74 36 85 11 25 100 241 105 255 5 14 27 67 35 85 11 23 39
91 65 155 10 25 23 59 30 75 7 17 32 75 54 130 23 55 48 115 56 133 8 18 15
39 15 47 0 8 3 15 8 15 6 0 40 80 47 110 1 3 9 22 18 44 9 21 17 40 17 42 0 2
11 28 25 58 14 30 25 57 25 60 0 3 11 29 24 58 13 29 31 75 41 101 10 26 22
50 26 53 5 3 9 12 9 21 0 8 6 29 14 46 8 18 27 61 41 97 15 36 38 89 51 118
13 29 24 58 24 65 0 7 4 17 8 23 5 5 19 36 32 69 13 33 28 69 34 80 5 11 11
25 12 30 2 12 82 203 95 227 5 10 9 21 9 26 0 4 -373 8 -830 8 l-830 0 -11
-36z"/>
<path d="M12548 11766 c-36 -34 -125 -117 -198 -186 -73 -69 -154 -145 -180
-170 -148 -140 -308 -291 -349 -330 -27 -25 -117 -110 -201 -190 -83 -80 -165
-157 -181 -171 -16 -14 -29 -30 -29 -34 0 -5 157 -167 350 -360 1116 -1118
1940 -1950 1940 -1957 0 -5 -12 -20 -27 -34 -38 -33 -147 -132 -187 -169 -41
-38 -186 -168 -250 -226 -27 -24 -61 -55 -76 -69 -15 -14 -57 -52 -94 -85 -37
-33 -87 -78 -110 -100 -23 -22 -62 -58 -87 -79 -43 -38 -194 -175 -249 -226
-15 -14 -65 -59 -110 -100 -46 -41 -111 -100 -144 -130 -97 -89 -113 -103
-153 -140 -22 -19 -77 -70 -124 -112 -46 -42 -93 -85 -105 -95 -12 -10 -59
-53 -106 -96 -47 -42 -97 -87 -110 -100 -14 -12 -63 -56 -109 -99 -46 -42
-104 -93 -128 -115 -61 -53 -111 -104 -111 -112 0 -4 10 -16 23 -27 12 -11 33
-34 47 -51 14 -17 54 -63 90 -102 95 -106 109 -121 180 -201 36 -40 76 -85 90
-100 14 -16 54 -61 90 -101 36 -40 76 -85 90 -100 14 -15 54 -60 90 -100 36
-41 75 -84 87 -96 12 -13 21 -23 19 -23 -2 0 15 -19 38 -43 23 -24 72 -79 111
-123 38 -43 90 -100 115 -127 l45 -47 57 52 c68 64 295 277 354 333 23 22 97
92 164 155 68 63 140 131 160 150 21 19 95 90 166 156 71 67 149 141 174 164
25 23 101 94 169 159 68 64 140 131 160 149 20 19 94 88 165 155 71 67 143
136 160 152 18 17 92 86 166 155 73 69 157 148 186 175 28 28 102 97 164 155
62 58 141 132 176 165 35 33 111 105 170 160 59 55 133 125 165 155 55 52 224
211 313 294 22 21 95 89 161 151 66 62 147 139 180 169 l59 56 -59 62 c-33 33
-78 80 -100 103 -22 23 -126 131 -232 241 -105 109 -219 228 -253 264 -35 36
-149 154 -254 264 -105 109 -220 229 -256 266 -36 37 -151 157 -257 266 -105
110 -219 228 -253 264 -34 36 -148 154 -253 264 -106 109 -217 224 -247 256
-110 115 -427 444 -490 510 -36 36 -148 153 -250 259 -102 106 -219 228 -260
271 -41 43 -109 114 -151 157 l-77 80 -64 -61z"/>
<path d="M3315 11724 c-208 -218 -256 -269 -445 -464 -108 -113 -224 -233
-256 -266 -78 -82 -389 -405 -489 -509 -44 -45 -165 -171 -270 -280 -104 -109
-217 -226 -250 -260 -99 -103 -426 -443 -490 -510 -59 -61 -396 -411 -525
-545 -36 -37 -135 -140 -220 -229 -85 -89 -197 -205 -248 -257 -50 -52 -92
-99 -92 -103 0 -5 45 -50 101 -102 55 -52 141 -132 190 -179 49 -47 130 -123
181 -170 50 -47 112 -105 138 -130 26 -25 98 -92 160 -150 61 -58 134 -125
160 -150 89 -85 225 -212 360 -338 74 -70 171 -161 215 -203 116 -110 140
-132 265 -249 62 -58 143 -134 180 -170 37 -36 121 -114 185 -175 65 -60 137
-128 160 -150 24 -22 87 -81 141 -132 55 -50 124 -115 154 -143 30 -29 89 -84
131 -124 42 -39 135 -127 209 -196 73 -69 149 -141 170 -160 160 -150 269
-252 313 -294 l51 -48 35 38 c19 22 55 62 80 90 25 27 73 81 106 118 33 38 69
78 80 91 55 60 172 190 185 204 8 9 67 75 130 146 63 72 120 135 126 140 6 6
48 53 95 105 46 52 89 100 94 106 6 6 37 41 70 79 33 37 73 81 89 97 28 28 28
29 10 51 -11 12 -28 29 -39 38 -34 28 -59 51 -156 139 -51 47 -110 101 -132
120 -21 19 -53 49 -72 65 -18 17 -65 59 -104 95 -40 36 -87 79 -105 95 -18 17
-73 66 -121 110 -49 44 -103 94 -121 110 -17 17 -57 53 -89 80 -31 28 -81 73
-111 100 -46 44 -137 126 -209 190 -79 71 -203 184 -225 205 -14 14 -66 61
-115 105 -106 94 -90 80 -200 180 -117 106 -197 179 -265 241 -60 55 -113 102
-174 156 l-39 35 659 662 c1435 1441 1644 1651 1644 1660 0 5 -16 19 -35 32
-19 13 -35 30 -35 37 0 6 -4 12 -8 12 -4 0 -37 28 -74 63 -36 34 -101 95 -144
136 -99 93 -342 323 -398 376 -24 22 -107 101 -186 175 -79 74 -182 172 -229
218 -47 45 -90 82 -96 81 -5 0 -50 -43 -100 -95z"/>
</g>
</svg>
